# xmcd
#
# Track frame offsets:
#	150
#	16460
#	34110
#	49035
#	65523
#	82195
#	100023
#	119418
#	148000
#	165873
#	181348
#	199648
#	216613
#	239445
#	254185
#	268250
#	290275
#	306318
#	321970
#
# Disc length: 4500
#
# Revision: 1
# Processed by: cddbd v1.5.1PL0 Copyright (c) Steve Scherf et al.
# Submitted via: FreeRIP 2.50 
# Normalized: r0:TDELIM( - )
#
DISCID=25119213
DTITLE=Variuos - Zomerkriebels CD2
DYEAR=2003
DGENRE=Pop
TTITLE0=In-Grid - Tu Es Foutu
TTITLE1=Ronan Keating - Life Is A Rollercoaster
TTITLE2=Anouk - RU Kiddin Me
TTITLE3=The Corrs - Irrestible
TTITLE4=Cher - Strong Enough
TTITLE5=Bee Gees - You Win Again
TTITLE6=Oleta Adams - Rhitim Of Life
TTITLE7=Donald Fage - New Frontier
TTITLE8=Wet Wet Wet - Love Is All Around
TTITLE9=Leona - Zomer Op Je Radio
TTITLE10=Micheal McDonald - Sweet Freedom
TTITLE11=Inner Circle - Sweat (A LaLa LA Long)
TTITLE12=A-Ha - The Sun Alwais Shine On TV
TTITLE13=Nick Kershaw - I Won't Let The Sun Go Down On Me
TTITLE14=The Rembrandts - I'll Be There For You
TTITLE15=All Saints - I Know Where It's At
TTITLE16=London Beat - You Bring Me On The Sun
TTITLE17=ABC - The Look Of Love
TTITLE18=Doobie Brothers - Long Train Runnin'
EXTD=
EXTT0=
EXTT1=
EXTT2=
EXTT3=
EXTT4=
EXTT5=
EXTT6=
EXTT7=
EXTT8=
EXTT9=
EXTT10=
EXTT11=
EXTT12=
EXTT13=
EXTT14=
EXTT15=
EXTT16=
EXTT17=
EXTT18=
PLAYORDER=
